<svg width="20" height="20" viewBox="0 0 20 20" fill="none" xmlns="http://www.w3.org/2000/svg">
<path d="M6.18481 15.8916C6.88159 15.8916 7.4474 16.4575 7.44751 17.1543C7.44751 17.8512 6.88157 18.416 6.18481 18.416C5.48817 18.4158 4.92407 17.851 4.92407 17.1543C4.92418 16.4578 5.48815 15.8918 6.18481 15.8916ZM15.5627 15.8916C16.2593 15.8918 16.8244 16.4577 16.8245 17.1543C16.8245 17.8511 16.2593 18.4158 15.5627 18.416C14.866 18.416 14.3 17.8512 14.3 17.1543C14.3002 16.4575 14.866 15.8916 15.5627 15.8916ZM2.39868 2.09277L4.1311 2.39258C4.38009 2.43567 4.57589 2.62321 4.63306 2.86328L4.64771 2.95605L4.84302 5.29102H16.5911C17.6101 5.29118 18.4011 6.15813 18.3284 7.15723L18.3147 7.2832L17.5247 12.748C17.3792 13.7496 16.5519 14.5037 15.5549 14.5674L15.4182 14.5713H6.32446C5.26401 14.5711 4.37328 13.793 4.21997 12.7578L4.20435 12.6211L3.44263 3.54199L2.18481 3.32422C1.87321 3.27018 1.65608 2.99403 1.66724 2.68652L1.67603 2.60156C1.7301 2.28993 2.00616 2.07274 2.31372 2.08398L2.39868 2.09277ZM5.45044 12.5176C5.48581 12.9399 5.81536 13.271 6.22778 13.3164L6.32446 13.3213H15.4182C15.8206 13.3213 16.1664 13.0489 16.2668 12.667L16.2874 12.5693L17.0784 7.10352C17.1175 6.83129 16.9272 6.58505 16.6643 6.5459L16.5911 6.54102H4.94849L5.45044 12.5176ZM14.0823 8.37109C14.4274 8.3712 14.7073 8.65098 14.7073 8.99609C14.7072 9.31229 14.4721 9.57372 14.1672 9.61523L14.0823 9.62109H11.7717C11.4266 9.62109 11.1468 9.34117 11.1467 8.99609C11.1467 8.67968 11.3817 8.41834 11.6868 8.37695L11.7717 8.37109H14.0823Z" fill="#207FA8"/>
</svg>
